<svg xmlns="http://www.w3.org/2000/svg" viewBox="0 0 503 398.23"><defs><style>.cls-1{fill:#fff;}.cls-2{fill:#d23a34;}.cls-3{fill:#9990c5;}.cls-4,.cls-5{fill:none;}.cls-4{stroke:#000;stroke-miterlimit:10;}.cls-6{font-size:12px;font-family:MyriadPro-Regular, Myriad Pro;}.cls-7{letter-spacing:0.01em;}.cls-8{letter-spacing:-0.03em;}</style></defs><title>Gender_Donut</title><g id="Layer_2" data-name="Layer 2"><g id="Layer_1-2" data-name="Layer 1"><circle cx="240.89" cy="199.12" r="132.33"/><circle class="cls-1" cx="240.89" cy="199.12" r="65.53"/><polygon class="cls-2" points="240.89 199.12 79.86 165.7 199.6 55.13 240.89 199.12"/><polygon class="cls-2" points="137.34 303.61 240.89 199.12 78.06 144.94 137.34 303.61"/><polygon class="cls-3" points="365.46 267.28 240.89 199.12 108.56 311.79 243.11 338.93 345.3 314.98 365.46 267.28"/><polygon class="cls-2" points="270.66 47.35 240.89 199.12 170.87 57.13 270.66 47.35"/><polygon class="cls-3" points="266.66 40.96 240.89 199.12 370.05 280.86 396.99 151.93 266.66 40.96"/><path class="cls-1" d="M240.89,0C130.92,0,41.77,89.15,41.77,199.12s89.15,199.11,199.12,199.11S440,309.08,440,199.12,350.86,0,240.89,0Zm0,331.45A132.34,132.34,0,1,1,373.22,199.12,132.33,132.33,0,0,1,240.89,331.45Z"/><circle class="cls-1" cx="240.89" cy="199.12" r="65.53"/><text></text><polyline class="cls-4" points="145 160.89 82.03 116.89 0 117.35"/><polyline class="cls-5" points="503 268.89 388 268.89 342 233.89"/><text class="cls-6" transform="translate(400.59 259.97)"><tspan class="cls-7">M</tspan><tspan x="9.72" y="0">ale</tspan></text><text class="cls-6" transform="translate(12.11 109.97)"><tspan class="cls-8">F</tspan><tspan x="5.47" y="0">emale</tspan></text><polyline class="cls-4" points="342 233.89 372.25 265.89 438 265.89"/></g></g></svg>