<svg xmlns="http://www.w3.org/2000/svg" viewBox="0 0 443 398.23"><defs><style>.cls-1{fill:#fff;}.cls-2{fill:#9990c5;}.cls-3{fill:#ffec5f;}.cls-4{fill:#87c663;}.cls-5{fill:#d23a34;}.cls-6{fill:#ec008c;}.cls-7{fill:none;stroke:#000;stroke-miterlimit:10;}.cls-8{font-size:12px;font-family:MyriadPro-Regular, Myriad Pro;}.cls-9{letter-spacing:0.01em;}.cls-10{letter-spacing:0em;}.cls-11{letter-spacing:0em;}.cls-12{letter-spacing:-0.01em;}.cls-13{letter-spacing:-0.01em;}.cls-14{letter-spacing:0em;}.cls-15{letter-spacing:-0.01em;}.cls-16{letter-spacing:0em;}.cls-17{letter-spacing:0em;}.cls-18{letter-spacing:0em;}</style></defs><title>ethnicity_donut</title><g id="Layer_2" data-name="Layer 2"><g id="Layer_1-2" data-name="Layer 1"><circle cx="226.88" cy="199.12" r="132.33"/><circle class="cls-1" cx="226.88" cy="199.12" r="65.53"/><polygon class="cls-2" points="226.88 199.12 65.85 165.7 185.6 55.13 226.88 199.12"/><polygon class="cls-3" points="129.15 311.89 229 201.91 72 144.89 129.15 311.89"/><polygon class="cls-4" points="256.65 47.35 226.88 199.12 156.86 57.13 256.65 47.35"/><polygon class="cls-5" points="252.66 40.96 226.88 199.12 356.04 280.86 382.99 151.93 252.66 40.96"/><polygon class="cls-6" points="351.45 265.69 226.88 196.01 94.55 311.19 229.11 338.93 331.3 314.45 351.45 265.69"/><polygon class="cls-6" points="64 154.89 227 195.78 95 311.29 64 154.89"/><path class="cls-1" d="M226.88,0C116.92,0,27.77,89.15,27.77,199.12s89.15,199.11,199.11,199.11S426,309.08,426,199.12,336.85,0,226.88,0Zm0,331.45A132.34,132.34,0,1,1,359.22,199.12,132.33,132.33,0,0,1,226.88,331.45Z"/><circle class="cls-1" cx="226.88" cy="199.12" r="65.53"/><polyline class="cls-7" points="335 144.89 375.69 112.89 443 112.89"/><polyline class="cls-7" points="319.5 264.39 356.12 300.89 443 300.89"/><polyline class="cls-7" points="214.5 112.39 152.5 72.39 25.5 72.39"/><polyline class="cls-7" points="161.5 144.39 96.29 115.89 3 115.89"/><text class="cls-8" transform="translate(400.33 109.55)">Black</text><text class="cls-8" transform="translate(384.33 294.22)"><tspan class="cls-9">H</tspan><tspan x="7.94" y="0">ispanic</tspan></text><text class="cls-8" transform="translate(15.33 111.22)"><tspan class="cls-10">W</tspan><tspan class="cls-11" x="10.09" y="0">hi</tspan><tspan class="cls-12" x="19.56" y="0">t</tspan><tspan x="23.46" y="0">e</tspan></text><text class="cls-8" transform="translate(65 65.89)"><tspan class="cls-13">A</tspan><tspan x="7.27" y="0">sian</tspan></text><text class="cls-8" transform="translate(4 189.89)">N<tspan class="cls-14" x="7.9" y="0">a</tspan><tspan x="13.63" y="0">ti</tspan><tspan class="cls-15" x="20.41" y="0">v</tspan><tspan class="cls-16" x="26.06" y="0">e </tspan><tspan class="cls-17" x="34.62" y="0">A</tspan><tspan x="41.93" y="0">me</tspan><tspan class="cls-18" x="57.95" y="0">r</tspan><tspan class="cls-11" x="61.92" y="0">ican</tspan></text><polyline class="cls-7" points="0 194.89 99.73 194.89 122.5 166.39"/></g></g></svg>