<svg xmlns="http://www.w3.org/2000/svg" viewBox="0 0 447 398.23"><defs><style>.cls-1{fill:#fff;}.cls-2{fill:#ec008c;}.cls-3{fill:#ffec5f;}.cls-4{fill:#9990c5;}.cls-5{fill:#87c663;}.cls-6{fill:#d23a34;}.cls-7{fill:none;stroke:#000;stroke-miterlimit:10;}.cls-8{font-size:12px;font-family:MyriadPro-Regular, Myriad Pro;}.cls-9{letter-spacing:-0.01em;}.cls-10{letter-spacing:-0.01em;}.cls-11{letter-spacing:0.01em;}.cls-12{letter-spacing:0em;}.cls-13{letter-spacing:-0.01em;}.cls-14{letter-spacing:0em;}.cls-15{letter-spacing:0em;}.cls-16{letter-spacing:0em;}.cls-17{letter-spacing:0em;}</style></defs><title>ethnicity - uc</title><g id="Layer_2" data-name="Layer 2"><g id="Layer_1-2" data-name="Layer 1"><circle cx="230.88" cy="199.12" r="132.33"/><circle class="cls-1" cx="230.88" cy="199.12" r="65.53"/><polygon class="cls-2" points="230.88 199.12 69.85 165.7 189.6 55.13 230.88 199.12"/><polygon class="cls-3" points="133.15 311.89 233 201.91 76 144.89 133.15 311.89"/><polygon class="cls-2" points="260.65 47.35 230.88 199.12 160.86 57.13 260.65 47.35"/><polygon class="cls-4" points="256.66 40.96 230.88 199.12 360.04 280.86 386.99 151.93 256.66 40.96"/><polygon class="cls-5" points="355.45 265.69 230.88 196.01 98.55 311.19 233.11 338.93 335.3 314.45 355.45 265.69"/><polygon class="cls-6" points="68 154.89 231 195.78 99 311.29 68 154.89"/><path class="cls-1" d="M230.88,0C120.92,0,31.77,89.15,31.77,199.12s89.15,199.11,199.11,199.11S430,309.08,430,199.12,340.85,0,230.88,0Zm0,331.45A132.34,132.34,0,1,1,363.22,199.12,132.33,132.33,0,0,1,230.88,331.45Z"/><circle class="cls-1" cx="230.88" cy="199.12" r="65.53"/><polyline class="cls-7" points="339 144.89 379.69 112.89 447 112.89"/><polyline class="cls-7" points="323.5 264.39 360.12 300.89 447 300.89"/><polyline class="cls-7" points="218.5 112.39 156.5 72.39 29.5 72.39"/><polyline class="cls-7" points="134.5 233.89 85.75 269.89 16 269.89"/><text class="cls-8" transform="translate(397.33 109.55)"><tspan class="cls-9">W</tspan><tspan x="10.09" y="0">hi</tspan><tspan class="cls-10" x="19.56" y="0">t</tspan><tspan x="23.46" y="0">e</tspan></text><text class="cls-8" transform="translate(388.33 294.22)"><tspan class="cls-10">A</tspan><tspan x="7.27" y="0">sian</tspan></text><text class="cls-8" transform="translate(30.33 264.22)">Black</text><text class="cls-8" transform="translate(67 66.89)"><tspan class="cls-11">H</tspan><tspan x="7.94" y="0">ispanic</tspan></text><text class="cls-8" transform="translate(9 188.89)">N<tspan class="cls-12" x="7.9" y="0">a</tspan><tspan x="13.63" y="0">ti</tspan><tspan class="cls-13" x="20.41" y="0">v</tspan><tspan class="cls-14" x="26.06" y="0">e </tspan><tspan class="cls-15" x="34.62" y="0">A</tspan><tspan x="41.93" y="0">me</tspan><tspan class="cls-16" x="57.95" y="0">r</tspan><tspan class="cls-17" x="61.92" y="0">ican</tspan></text><polyline class="cls-7" points="0 193.89 99.73 193.89 122.5 165.39"/></g></g></svg>
