<svg xmlns="http://www.w3.org/2000/svg" viewBox="0 0 468 398.23"><defs><style>.cls-1{fill:#fff;}.cls-2{fill:#9990c5;}.cls-3{fill:#d23a34;}.cls-4,.cls-5{fill:none;}.cls-4{stroke:#000;stroke-miterlimit:10;}.cls-6,.cls-8{font-size:12px;font-family:MyriadPro-Regular, Myriad Pro;}.cls-7{letter-spacing:-0.03em;}.cls-8{letter-spacing:0.01em;}.cls-9{letter-spacing:0em;}</style></defs><title>Gender - UC</title><g id="Layer_2" data-name="Layer 2"><g id="Layer_1-2" data-name="Layer 1"><circle cx="262.12" cy="199.12" r="132.33"/><circle class="cls-1" cx="262.12" cy="199.12" r="65.53"/><polygon class="cls-2" points="262.12 199.12 423.15 232.53 303.4 343.1 262.12 199.12"/><polygon class="cls-2" points="365.67 94.62 262.12 199.12 424.94 253.29 365.67 94.62"/><polygon class="cls-3" points="137.55 130.95 262.12 199.12 394.45 86.44 259.89 59.3 157.7 83.25 137.55 130.95"/><polygon class="cls-2" points="232.35 350.88 262.12 199.12 332.14 341.11 232.35 350.88"/><polygon class="cls-3" points="236.34 357.27 262.12 199.12 132.96 117.38 106.01 246.3 236.34 357.27"/><path class="cls-1" d="M262.12,398.23c110,0,199.11-89.15,199.11-199.11S372.08,0,262.12,0,63,89.15,63,199.12,152.15,398.23,262.12,398.23Zm0-331.45A132.34,132.34,0,1,1,129.78,199.12,132.34,132.34,0,0,1,262.12,66.78Z"/><circle class="cls-1" cx="262.12" cy="199.12" r="65.53"/><text></text><polyline class="cls-4" points="358 237.34 405.77 280.89 468 280.43"/><polyline class="cls-5" points="0 129.34 115 129.34 161 164.34"/><polyline class="cls-4" points="161 164.34 130.75 132.34 65 132.34"/><text class="cls-6" transform="translate(75 126.89)"><tspan class="cls-7">F</tspan><tspan x="5.47" y="0">emale</tspan></text><text class="cls-8" transform="translate(425 275.89)">M<tspan class="cls-9" x="9.72" y="0">ale</tspan></text></g></g></svg>